<svg width="84" height="31" viewBox="0 0 84 31" fill="none" xmlns="http://www.w3.org/2000/svg">
<circle cx="15" cy="15.5" r="15" fill="#20BBBB"/>
<path fill-rule="evenodd" clip-rule="evenodd" d="M4.37109 20.1428L5.17459 19.4517L9.35013 15.86L5.17459 12.2684L4.37109 11.5772L5.75339 9.97021L6.55689 10.6614L11.6251 15.0209C12.1385 15.4625 12.1385 16.2575 11.6251 16.6991L6.55689 21.0587L5.75339 21.7498L4.37109 20.1428ZM25.6954 11.5773L24.8919 12.2685L20.7163 15.8601L24.8919 19.4518L25.6954 20.1429L24.3131 21.7499L23.5096 21.0588L18.4413 16.6992C17.9279 16.2576 17.9279 15.4626 18.4413 15.021L23.5096 10.6615L24.3131 9.97031L25.6954 11.5773ZM16.0919 11.4333V10.3734H13.9721V11.4333V20.3302V21.39H16.0919V20.3302V11.4333Z" fill="white"/>
<path d="M40 13.2267V9.57359L45.4645 6.23587H48.2212V25.5H44.6351V10.4409L40 13.2267Z" fill="url(#paint0_linear_6255_22703)"/>
<path d="M61.6771 17.3265L66.7757 25.5H62.7017L59.384 20.0861L57.4812 22.3463V25.5H54.0903V5.5H57.4812V17.9047L62.287 11.8863H66.2146L61.6771 17.3265Z" fill="url(#paint1_linear_6255_22703)"/>
<path d="M83.7073 6.26215L77.4377 15.6445L84 25.5H79.6089L75.2666 18.7457L70.8998 25.5H66.8015L73.3393 15.7234L67.0942 6.26215H71.4121L75.5105 12.6222L79.6089 6.26215H83.7073Z" fill="url(#paint2_linear_6255_22703)"/>
<defs>
<linearGradient id="paint0_linear_6255_22703" x1="85.365" y1="15.5" x2="33.4963" y2="15.5" gradientUnits="userSpaceOnUse">
<stop stop-color="#03CDC1"/>
<stop offset="1" stop-color="#8AB9FF"/>
</linearGradient>
<linearGradient id="paint1_linear_6255_22703" x1="85.365" y1="15.5" x2="33.4963" y2="15.5" gradientUnits="userSpaceOnUse">
<stop stop-color="#03CDC1"/>
<stop offset="1" stop-color="#8AB9FF"/>
</linearGradient>
<linearGradient id="paint2_linear_6255_22703" x1="85.365" y1="15.5" x2="33.4963" y2="15.5" gradientUnits="userSpaceOnUse">
<stop stop-color="#03CDC1"/>
<stop offset="1" stop-color="#8AB9FF"/>
</linearGradient>
</defs>
</svg>
